<?xml version="1.0" encoding="UTF-8"?>
<svg width="226px" height="78px" viewBox="0 0 226 78" version="1.1" xmlns="http://www.w3.org/2000/svg" xmlns:xlink="http://www.w3.org/1999/xlink">
    <!-- Generator: Sketch 49.2 (51160) - http://www.bohemiancoding.com/sketch -->
    <title>Artboard Copy</title>
    <desc>Created with Sketch.</desc>
    <defs></defs>
    <g id="Artboard-Copy" stroke="none" stroke-width="1" fill="none" fill-rule="evenodd">
        <g id="Group-3" transform="translate(5.000000, -3.000000)">
            <path d="M34.372,48.724 C33.5319958,50.0120064 32.8600025,51.8879877 32.356,54.352 C31.8519975,56.8160123 31.6,58.8039924 31.6,60.316 C31.6,61.8280076 31.6279997,63.0599952 31.684,64.012 C29.4439888,63.6759983 27.4420088,63.0180049 25.678,62.038 C23.9139912,61.0579951 22.6960034,60.1480042 22.024,59.308 L21.1,58.048 C17.9639843,61.6880182 15.9480045,64.3759913 15.052,66.112 C14.9399994,69.4720168 14.884,72.1319902 14.884,74.092 C12.8679899,73.6439978 10.7960106,72.9300049 8.668,71.95 C6.53998936,70.9699951 4.88800588,70.1160036 3.712,69.388 L2.032,68.296 C2.98400476,60.1759594 4.38399076,52.0000412 6.232,43.768 L7.156,39.484 C9.45201148,39.9880025 11.5379906,40.6039964 13.414,41.332 C15.2900094,42.0600036 16.5919964,42.6479978 17.32,43.096 L18.328,43.852 C17.2079944,47.2120168 16.3120034,52.1119678 15.64,58.552 C16.9840067,55.4159843 19.8119784,49.5080434 24.124,40.828 L34.372,48.724 Z M52.936,72.916 C55.0640106,65.2999619 56.128,59.2240227 56.128,54.688 C56.128,54.295998 56.1000003,53.9600014 56.044,53.68 L55.876,51.916 C52.6279838,54.716014 49.8560115,58.8879723 47.56,64.432 C47.2239983,68.4640202 47.0000006,71.7119877 46.888,74.176 L34.792,71.152 C36.3600078,60.7359479 37.2839986,52.5040302 37.564,46.456 L37.732,43.096 L50.08,40.24 L48.064,52.252 C50.1360104,48.7239824 52.6279854,46.1060085 55.54,44.398 C58.4520146,42.6899915 61.1959871,41.836 63.772,41.836 C65.3400078,44.1880118 66.4039972,47.2399812 66.964,50.992 C68.8120092,48.1359857 70.8559888,45.812009 73.096,44.02 C75.3360112,42.227991 77.2679919,41.332 78.892,41.332 C82.1960165,41.332 85.443984,45.0559628 88.636,52.504 C87.627995,54.2400087 86.5920053,57.305978 85.528,61.702 C84.4639947,66.098022 83.8200011,70.4519784 83.596,74.764 C77.8839714,73.9799961 73.824012,72.4400115 71.416,70.144 C73.3200095,63.1999653 74.272,57.8800185 74.272,54.184 L74.272,53.428 L74.104,51.916 C71.8639888,53.3720073 69.6520109,55.8079829 67.468,59.224 C66.9079972,61.7440126 66.2920034,65.9159709 65.62,71.74 C63.1559877,72.5800042 59.7120221,73 55.288,73 C54.5039961,73 53.7200039,72.9720003 52.936,72.916 Z M107.62,51.16 C106.499994,53.5120118 105.604003,55.7379895 104.932,57.838 C104.259997,59.9380105 103.658003,62.5419845 103.126,65.65 C102.593997,68.7580155 102.328,71.1379917 102.328,72.79 L102.328,75.688 C99.7519871,74.5119941 97.5120095,73.3080062 95.608,72.076 C93.7039905,70.8439938 92.4160034,69.8920034 91.744,69.22 L90.82,68.212 C90.82,63.1159745 91.1279969,58.3840218 91.744,54.016 C92.3600031,49.6479782 92.9759969,46.568009 93.592,44.776 L94.516,42.004 C99.5560252,42.9000045 104.06398,44.1879916 108.04,45.868 L110.056,46.708 C109.551997,47.3240031 108.740006,48.8079882 107.62,51.16 Z M107.2,42.592 C106.527997,42.3119986 105.674005,41.8920028 104.638,41.332 C103.601995,40.7719972 102.03401,39.5400095 99.934,37.636 C97.8339895,35.7319905 96.3920039,33.7160106 95.608,31.588 C97.008007,30.9719969 98.3379937,30.1180055 99.598,29.026 C100.858006,27.9339945 101.767997,27.0240036 102.328,26.296 L103.168,25.12 C106.584017,25.6800028 109.495988,26.5759938 111.904,27.808 L113.164,28.48 C113.051999,29.2080036 112.898001,30.1319944 112.702,31.252 C112.505999,32.3720056 111.890005,34.2059873 110.854,36.754 C109.817995,39.3020127 108.600007,41.2479933 107.2,42.592 Z M129.124,70.144 C131.02801,63.1999653 131.98,57.8800185 131.98,54.184 L131.98,53.428 L131.812,51.916 C128.619984,54.6600137 125.456016,58.9719706 122.32,64.852 C122.039999,66.8680101 121.760001,69.6679821 121.48,73.252 C119.295989,72.7479975 117.308009,72.0760042 115.516,71.236 C113.723991,70.3959958 112.464004,69.6960028 111.736,69.136 L110.644,68.212 C110.980002,60.20396 111.623995,52.9240328 112.576,46.372 L112.996,43.096 L127.612,39.904 C126.491994,42.9280151 125.400005,47.1839726 124.336,52.672 C126.35201,49.1439824 128.451989,46.3720101 130.636,44.356 C132.820011,42.3399899 134.807991,41.332 136.6,41.332 C139.904017,41.332 143.151984,45.0559628 146.344,52.504 C145.951998,53.2880039 145.448003,54.3939929 144.832,55.822 C144.215997,57.2500071 143.376005,60.0219794 142.312,64.138 C141.247995,68.2540206 140.660001,72.215981 140.548,76.024 C135.339974,74.3999919 131.532012,72.4400115 129.124,70.144 Z M159.028,75.016 C155.331982,74.1199955 152.44801,72.272014 150.376,69.472 C148.30399,66.671986 147.268,63.9840129 147.268,61.408 C147.268,58.8319871 148.065992,56.1580139 149.662,53.386 C151.258008,50.6139861 153.525985,48.1220111 156.466,45.91 C159.406015,43.6979889 162.443984,42.592 165.58,42.592 C167.204008,42.592 168.687993,43.9639863 170.032,46.708 L172.972,31 C178.572028,30.2159961 183.583978,29.2640056 188.008,28.144 L190.192,27.64 C189.071994,32.5120244 186.580019,40.2399471 182.716,50.824 L180.7,56.368 L181.204,72.916 C180.643997,72.916 179.902005,72.8740004 178.978,72.79 C178.053995,72.7059996 176.542011,72.2300043 174.442,71.362 C172.34199,70.4939957 170.676006,69.2480081 169.444,67.624 C166.083983,70.5360146 163.060013,72.7479924 160.372,74.26 L159.028,75.016 Z M158.692,68.464 C161.436014,67.2319938 164.599982,64.6560196 168.184,60.736 L169.444,50.656 C166.475985,51.6080048 163.942011,54.1699791 161.842,58.342 C159.74199,62.5140209 158.692,65.8879871 158.692,68.464 Z" id="rmind-copy" fill="#000000"></path>
            <path d="M32.372,45.724 C31.5319958,47.0120064 30.8600025,48.8879877 30.356,51.352 C29.8519975,53.8160123 29.6,55.8039924 29.6,57.316 C29.6,58.8280076 29.6279997,60.0599952 29.684,61.012 C27.4439888,60.6759983 25.4420088,60.0180049 23.678,59.038 C21.9139912,58.0579951 20.6960034,57.1480042 20.024,56.308 L19.1,55.048 C15.9639843,58.6880182 13.9480045,61.3759913 13.052,63.112 C12.9399994,66.4720168 12.884,69.1319902 12.884,71.092 C10.8679899,70.6439978 8.79601064,69.9300049 6.668,68.95 C4.53998936,67.9699951 2.88800588,67.1160036 1.712,66.388 L0.032,65.296 C0.98400476,57.1759594 2.38399076,49.0000412 4.232,40.768 L5.156,36.484 C7.45201148,36.9880025 9.53799062,37.6039964 11.414,38.332 C13.2900094,39.0600036 14.5919964,39.6479978 15.32,40.096 L16.328,40.852 C15.2079944,44.2120168 14.3120034,49.1119678 13.64,55.552 C14.9840067,52.4159843 17.8119784,46.5080434 22.124,37.828 L32.372,45.724 Z M50.936,69.916 C53.0640106,62.2999619 54.128,56.2240227 54.128,51.688 C54.128,51.295998 54.1000003,50.9600014 54.044,50.68 L53.876,48.916 C50.6279838,51.716014 47.8560115,55.8879723 45.56,61.432 C45.2239983,65.4640202 45.0000006,68.7119877 44.888,71.176 L32.792,68.152 C34.3600078,57.7359479 35.2839986,49.5040302 35.564,43.456 L35.732,40.096 L48.08,37.24 L46.064,49.252 C48.1360104,45.7239824 50.6279854,43.1060085 53.54,41.398 C56.4520146,39.6899915 59.1959871,38.836 61.772,38.836 C63.3400078,41.1880118 64.4039972,44.2399812 64.964,47.992 C66.8120092,45.1359857 68.8559888,42.812009 71.096,41.02 C73.3360112,39.227991 75.2679919,38.332 76.892,38.332 C80.1960165,38.332 83.443984,42.0559628 86.636,49.504 C85.627995,51.2400087 84.5920053,54.305978 83.528,58.702 C82.4639947,63.098022 81.8200011,67.4519784 81.596,71.764 C75.8839714,70.9799961 71.824012,69.4400115 69.416,67.144 C71.3200095,60.1999653 72.272,54.8800185 72.272,51.184 L72.272,50.428 L72.104,48.916 C69.8639888,50.3720073 67.6520109,52.8079829 65.468,56.224 C64.9079972,58.7440126 64.2920034,62.9159709 63.62,68.74 C61.1559877,69.5800042 57.7120221,70 53.288,70 C52.5039961,70 51.7200039,69.9720003 50.936,69.916 Z M105.62,48.16 C104.499994,50.5120118 103.604003,52.7379895 102.932,54.838 C102.259997,56.9380105 101.658003,59.5419845 101.126,62.65 C100.593997,65.7580155 100.328,68.1379917 100.328,69.79 L100.328,72.688 C97.7519871,71.5119941 95.5120095,70.3080062 93.608,69.076 C91.7039905,67.8439938 90.4160034,66.8920034 89.744,66.22 L88.82,65.212 C88.82,60.1159745 89.1279969,55.3840218 89.744,51.016 C90.3600031,46.6479782 90.9759969,43.568009 91.592,41.776 L92.516,39.004 C97.5560252,39.9000045 102.06398,41.1879916 106.04,42.868 L108.056,43.708 C107.551997,44.3240031 106.740006,45.8079882 105.62,48.16 Z M105.2,39.592 C104.527997,39.3119986 103.674005,38.8920028 102.638,38.332 C101.601995,37.7719972 100.03401,36.5400095 97.934,34.636 C95.8339895,32.7319905 94.3920039,30.7160106 93.608,28.588 C95.008007,27.9719969 96.3379937,27.1180055 97.598,26.026 C98.8580063,24.9339945 99.7679972,24.0240036 100.328,23.296 L101.168,22.12 C104.584017,22.6800028 107.495988,23.5759938 109.904,24.808 L111.164,25.48 C111.051999,26.2080036 110.898001,27.1319944 110.702,28.252 C110.505999,29.3720056 109.890005,31.2059873 108.854,33.754 C107.817995,36.3020127 106.600007,38.2479933 105.2,39.592 Z M127.124,67.144 C129.02801,60.1999653 129.98,54.8800185 129.98,51.184 L129.98,50.428 L129.812,48.916 C126.619984,51.6600137 123.456016,55.9719706 120.32,61.852 C120.039999,63.8680101 119.760001,66.6679821 119.48,70.252 C117.295989,69.7479975 115.308009,69.0760042 113.516,68.236 C111.723991,67.3959958 110.464004,66.6960028 109.736,66.136 L108.644,65.212 C108.980002,57.20396 109.623995,49.9240328 110.576,43.372 L110.996,40.096 L125.612,36.904 C124.491994,39.9280151 123.400005,44.1839726 122.336,49.672 C124.35201,46.1439824 126.451989,43.3720101 128.636,41.356 C130.820011,39.3399899 132.807991,38.332 134.6,38.332 C137.904017,38.332 141.151984,42.0559628 144.344,49.504 C143.951998,50.2880039 143.448003,51.3939929 142.832,52.822 C142.215997,54.2500071 141.376005,57.0219794 140.312,61.138 C139.247995,65.2540206 138.660001,69.215981 138.548,73.024 C133.339974,71.3999919 129.532012,69.4400115 127.124,67.144 Z M157.028,72.016 C153.331982,71.1199955 150.44801,69.272014 148.376,66.472 C146.30399,63.671986 145.268,60.9840129 145.268,58.408 C145.268,55.8319871 146.065992,53.1580139 147.662,50.386 C149.258008,47.6139861 151.525985,45.1220111 154.466,42.91 C157.406015,40.6979889 160.443984,39.592 163.58,39.592 C165.204008,39.592 166.687993,40.9639863 168.032,43.708 L170.972,28 C176.572028,27.2159961 181.583978,26.2640056 186.008,25.144 L188.192,24.64 C187.071994,29.5120244 184.580019,37.2399471 180.716,47.824 L178.7,53.368 L179.204,69.916 C178.643997,69.916 177.902005,69.8740004 176.978,69.79 C176.053995,69.7059996 174.542011,69.2300043 172.442,68.362 C170.34199,67.4939957 168.676006,66.2480081 167.444,64.624 C164.083983,67.5360146 161.060013,69.7479924 158.372,71.26 L157.028,72.016 Z M156.692,65.464 C159.436014,64.2319938 162.599982,61.6560196 166.184,57.736 L167.444,47.656 C164.475985,48.6080048 161.942011,51.1699791 159.842,55.342 C157.74199,59.5140209 156.692,62.8879871 156.692,65.464 Z" id="rmind" fill="#FF3A00"></path>
            <g id="Group" transform="translate(179.000000, 5.000000)">
                <path d="M21.6787237,9.46332689 C22.3133935,10.0073296 22.8913877,10.800655 23.4127237,11.8433269 C23.9340596,12.8859988 24.1947237,14.1213197 24.1947237,15.5493269 C24.1947237,16.977334 23.9340596,18.3656535 23.4127237,19.7143269 C22.8913877,21.0630003 22.2567274,22.1339896 21.5087237,22.9273269 C19.9900494,24.5366683 18.630063,25.5793245 17.4287237,26.0553269 L16.6467237,26.3613269 L15.6607237,22.3493269 C16.8167294,21.6693235 17.7800531,20.7513327 18.5507237,19.5953269 C18.9360589,19.0286574 19.2873887,18.2579984 19.6047237,17.2833269 C19.9220586,16.3086553 20.0807237,15.2546659 20.0807237,14.1213269 C20.0807237,12.9879879 19.8257262,11.8206662 19.3157237,10.6193269 C18.8057211,9.41798755 18.2900596,8.51132995 17.7687237,7.89932689 L17.0207237,7.01532689 C17.7233938,7.17399435 18.5223859,7.47999129 19.4177237,7.93332689 C20.3130615,8.38666249 21.0667206,8.89665739 21.6787237,9.46332689 Z" id=")" fill="#000000" transform="translate(19.927724, 16.688327) rotate(-54.000000) translate(-19.927724, -16.688327) "></path>
                <path d="M19.6787237,8.46332689 C20.3133935,9.00732961 20.8913877,9.80065501 21.4127237,10.8433269 C21.9340596,11.8859988 22.1947237,13.1213197 22.1947237,14.5493269 C22.1947237,15.977334 21.9340596,17.3656535 21.4127237,18.7143269 C20.8913877,20.0630003 20.2567274,21.1339896 19.5087237,21.9273269 C17.9900494,23.5366683 16.630063,24.5793245 15.4287237,25.0553269 L14.6467237,25.3613269 L13.6607237,21.3493269 C14.8167294,20.6693235 15.7800531,19.7513327 16.5507237,18.5953269 C16.9360589,18.0286574 17.2873887,17.2579984 17.6047237,16.2833269 C17.9220586,15.3086553 18.0807237,14.2546659 18.0807237,13.1213269 C18.0807237,11.9879879 17.8257262,10.8206662 17.3157237,9.61932689 C16.8057211,8.41798755 16.2900596,7.51132995 15.7687237,6.89932689 L15.0207237,6.01532689 C15.7233938,6.17399435 16.5223859,6.47999129 17.4177237,6.93332689 C18.3130615,7.38666249 19.0667206,7.89665739 19.6787237,8.46332689 Z" id=")-copy-3" fill="#FF3A00" transform="translate(17.927724, 15.688327) rotate(-54.000000) translate(-17.927724, -15.688327) "></path>
            </g>
            <g id="Group-2" transform="translate(188.000000, 0.000000)">
                <path d="M21.6787237,9.46332689 C22.3133935,10.0073296 22.8913877,10.800655 23.4127237,11.8433269 C23.9340596,12.8859988 24.1947237,14.1213197 24.1947237,15.5493269 C24.1947237,16.977334 23.9340596,18.3656535 23.4127237,19.7143269 C22.8913877,21.0630003 22.2567274,22.1339896 21.5087237,22.9273269 C19.9900494,24.5366683 18.630063,25.5793245 17.4287237,26.0553269 L16.6467237,26.3613269 L15.6607237,22.3493269 C16.8167294,21.6693235 17.7800531,20.7513327 18.5507237,19.5953269 C18.9360589,19.0286574 19.2873887,18.2579984 19.6047237,17.2833269 C19.9220586,16.3086553 20.0807237,15.2546659 20.0807237,14.1213269 C20.0807237,12.9879879 19.8257262,11.8206662 19.3157237,10.6193269 C18.8057211,9.41798755 18.2900596,8.51132995 17.7687237,7.89932689 L17.0207237,7.01532689 C17.7233938,7.17399435 18.5223859,7.47999129 19.4177237,7.93332689 C20.3130615,8.38666249 21.0667206,8.89665739 21.6787237,9.46332689 Z" id=")-copy" fill="#000000" transform="translate(19.927724, 16.688327) rotate(-54.000000) translate(-19.927724, -16.688327) "></path>
                <path d="M19.6787237,8.46332689 C20.3133935,9.00732961 20.8913877,9.80065501 21.4127237,10.8433269 C21.9340596,11.8859988 22.1947237,13.1213197 22.1947237,14.5493269 C22.1947237,15.977334 21.9340596,17.3656535 21.4127237,18.7143269 C20.8913877,20.0630003 20.2567274,21.1339896 19.5087237,21.9273269 C17.9900494,23.5366683 16.630063,24.5793245 15.4287237,25.0553269 L14.6467237,25.3613269 L13.6607237,21.3493269 C14.8167294,20.6693235 15.7800531,19.7513327 16.5507237,18.5953269 C16.9360589,18.0286574 17.2873887,17.2579984 17.6047237,16.2833269 C17.9220586,15.3086553 18.0807237,14.2546659 18.0807237,13.1213269 C18.0807237,11.9879879 17.8257262,10.8206662 17.3157237,9.61932689 C16.8057211,8.41798755 16.2900596,7.51132995 15.7687237,6.89932689 L15.0207237,6.01532689 C15.7233938,6.17399435 16.5223859,6.47999129 17.4177237,6.93332689 C18.3130615,7.38666249 19.0667206,7.89665739 19.6787237,8.46332689 Z" id=")-copy-2" fill="#FF3A00" transform="translate(17.927724, 15.688327) rotate(-54.000000) translate(-17.927724, -15.688327) "></path>
            </g>
        </g>
    </g>
</svg>